<svg id="圖層_1" data-name="圖層 1" xmlns="http://www.w3.org/2000/svg" viewBox="0 0 100 100"><defs><style>.cls-1{fill:#333;}</style></defs><title>icons</title><path class="cls-1" d="M71.81,63.08a25.38,25.38,0,0,0,1.45-2.8,22.54,22.54,0,0,0,15.68-5.16l-.44-13a26.89,26.89,0,0,1-13.07,8.34c0-.16,0-.32,0-.48a25.7,25.7,0,0,0-.15-2.72A22.53,22.53,0,0,0,86.25,35l-6.88-11a26.88,26.88,0,0,1-7.12,13.73A25.47,25.47,0,0,0,70.53,35,22.54,22.54,0,0,0,73.9,18.83L62.42,12.71a26.89,26.89,0,0,1,.69,15.48,25.36,25.36,0,0,0-2.85-1.47A22.53,22.53,0,0,0,55.1,11.07l-13,.44a26.88,26.88,0,0,1,8.33,13.05H50a25.71,25.71,0,0,0-2.75.15A22.53,22.53,0,0,0,35,13.74l-11,6.88a26.88,26.88,0,0,1,13.74,7.13A25.46,25.46,0,0,0,35,29.48a22.53,22.53,0,0,0-16.11-3.34L12.73,37.61a26.88,26.88,0,0,1,15.45-.69,25.36,25.36,0,0,0-1.45,2.8,22.54,22.54,0,0,0-15.67,5.16l.44,13a26.89,26.89,0,0,1,13.07-8.34c0,.15,0,.3,0,.46a25.7,25.7,0,0,0,.15,2.75A22.53,22.53,0,0,0,13.75,65l6.88,11a26.88,26.88,0,0,1,7.13-13.74A25.44,25.44,0,0,0,29.48,65,22.54,22.54,0,0,0,26.1,81.17l11.47,6.12a26.89,26.89,0,0,1-.68-15.5,25.35,25.35,0,0,0,2.84,1.47A22.54,22.54,0,0,0,44.9,88.93l13-.44a26.89,26.89,0,0,1-8.34-13.08H50a25.71,25.71,0,0,0,2.74-.15,22.54,22.54,0,0,0,12.3,11l11-6.88a26.89,26.89,0,0,1-13.75-7.15A25.46,25.46,0,0,0,65,70.51a22.53,22.53,0,0,0,16.13,3.35l6.12-11.47A26.88,26.88,0,0,1,71.81,63.08Zm-.65-11.64A21.26,21.26,0,0,1,67.61,61.8,21.46,21.46,0,0,1,59.34,69,21.06,21.06,0,0,1,51,71.17l-1,0c-.48,0-1,0-1.42-.05A21.27,21.27,0,0,1,38.19,67.6,21.46,21.46,0,0,1,31,59.34,21.05,21.05,0,0,1,28.82,51c0-.34,0-.67,0-1s0-1,.05-1.44A21.25,21.25,0,0,1,32.38,38.2,21.45,21.45,0,0,1,40.65,31,21.06,21.06,0,0,1,49,28.8l1,0c.48,0,.95,0,1.42.05a21.27,21.27,0,0,1,10.4,3.55A21.47,21.47,0,0,1,69,40.66,21.06,21.06,0,0,1,71.19,49c0,.33,0,.66,0,1C71.21,50.48,71.19,51,71.15,51.45Z"/><path class="cls-1" d="M65.53,43.23a16.88,16.88,0,0,0-.81-1.61,16.94,16.94,0,0,0-6.16-6.24,16.81,16.81,0,0,0-6.66-2.22,17,17,0,0,0-1.79-.11H50a16.83,16.83,0,0,0-8.39,2.23,17,17,0,0,0-6.22,6.15,16.81,16.81,0,0,0-2.22,6.65,17,17,0,0,0-.11,1.8s0,.07,0,.11a16.83,16.83,0,0,0,2.23,8.38,16.95,16.95,0,0,0,6.16,6.23,16.81,16.81,0,0,0,6.66,2.22,17,17,0,0,0,1.79.11H50a16.82,16.82,0,0,0,8.37-2.22,17,17,0,0,0,6.22-6.13,16.81,16.81,0,0,0,2.23-6.65,17,17,0,0,0,.11-1.8s0-.09,0-.13A16.84,16.84,0,0,0,65.53,43.23Z"/></svg>